<svg width="18" height="18" viewBox="0 0 18 18" fill="none" xmlns="http://www.w3.org/2000/svg">
<path fill-rule="evenodd" clip-rule="evenodd" d="M2.25 1.5H7.5C7.95 1.5 8.25 1.8 8.25 2.25V7.5C8.25 7.95 7.95 8.25 7.5 8.25H2.25C1.8 8.25 1.5 7.95 1.5 7.5V2.25C1.5 1.8 1.8 1.5 2.25 1.5ZM3 6.75H6.75V3H3V6.75ZM15.75 1.5H10.5C10.05 1.5 9.75 1.8 9.75 2.25V7.5C9.75 7.95 10.05 8.25 10.5 8.25H15.75C16.2 8.25 16.5 7.95 16.5 7.5V2.25C16.5 1.8 16.2 1.5 15.75 1.5ZM11.25 6.75H15V3H11.25V6.75ZM15.75 9.75H10.5C10.05 9.75 9.75 10.05 9.75 10.5V15.75C9.75 16.2 10.05 16.5 10.5 16.5H15.75C16.2 16.5 16.5 16.2 16.5 15.75V10.5C16.5 10.05 16.2 9.75 15.75 9.75ZM11.25 15H15V11.25H11.25V15ZM7.5 9.75H2.25C1.8 9.75 1.5 10.05 1.5 10.5V15.75C1.5 16.2 1.8 16.5 2.25 16.5H7.5C7.95 16.5 8.25 16.2 8.25 15.75V10.5C8.25 10.05 7.95 9.75 7.5 9.75ZM3 15H6.75V11.25H3V15Z" fill="black"/>
<mask id="mask0" mask-type="alpha" maskUnits="userSpaceOnUse" x="1" y="1" width="16" height="16">
<path fill-rule="evenodd" clip-rule="evenodd" d="M2.25 1.5H7.5C7.95 1.5 8.25 1.8 8.25 2.25V7.5C8.25 7.95 7.95 8.25 7.5 8.25H2.25C1.8 8.25 1.5 7.95 1.5 7.5V2.25C1.5 1.8 1.8 1.5 2.25 1.5ZM3 6.75H6.75V3H3V6.75ZM15.75 1.5H10.5C10.05 1.5 9.75 1.8 9.75 2.25V7.5C9.75 7.95 10.05 8.25 10.5 8.25H15.75C16.2 8.25 16.5 7.95 16.5 7.5V2.25C16.5 1.8 16.2 1.5 15.75 1.5ZM11.25 6.75H15V3H11.25V6.75ZM15.75 9.75H10.5C10.05 9.75 9.75 10.05 9.75 10.5V15.75C9.75 16.2 10.05 16.5 10.5 16.5H15.75C16.2 16.5 16.5 16.2 16.5 15.75V10.5C16.5 10.05 16.2 9.75 15.75 9.75ZM11.25 15H15V11.25H11.25V15ZM7.5 9.75H2.25C1.8 9.75 1.5 10.05 1.5 10.5V15.75C1.5 16.2 1.8 16.5 2.25 16.5H7.5C7.95 16.5 8.25 16.2 8.25 15.75V10.5C8.25 10.05 7.95 9.75 7.5 9.75ZM3 15H6.75V11.25H3V15Z" fill="white"/>
</mask>
<g mask="url(#mask0)">
<rect width="18" height="18" fill="#D5F7FF"/>
</g>
</svg>
