<svg width="160" height="24" viewBox="0 0 160 24" fill="none" xmlns="http://www.w3.org/2000/svg">
<g clip-path="url(#clip0)">
<path d="M2.45789 7.33739L1.9567 7.76644C1.20909 8.40646 1.1282 9.52404 1.77603 10.2626L5.31331 14.2955C5.96115 15.0341 7.09238 15.114 7.83999 14.474L8.34118 14.0449C9.0888 13.4049 9.16969 12.2873 8.52185 11.5487L4.98457 7.51588C4.33674 6.77729 3.20551 6.69738 2.45789 7.33739Z" fill="#158427"/>
<path d="M3.63048 7.21083C3.8428 7.21034 4.05271 7.25524 4.24581 7.34243C4.43892 7.42963 4.61064 7.55706 4.74921 7.71599L8.28821 11.7511C8.41581 11.8959 8.5132 12.0641 8.5748 12.2461C8.63641 12.4281 8.661 12.6204 8.64718 12.8119C8.63336 13.0033 8.58139 13.1902 8.49426 13.3617C8.40713 13.5333 8.28656 13.6862 8.13946 13.8115L7.63743 14.2432C7.34067 14.4919 6.95708 14.6158 6.56893 14.5883C6.18078 14.5609 5.81898 14.3842 5.56113 14.0963L2.00973 10.0611C1.75267 9.76838 1.62337 9.387 1.65008 9.00034C1.67679 8.61368 1.85735 8.25319 2.15228 7.99765L2.65741 7.56903C2.92461 7.33698 3.26853 7.20957 3.62429 7.21083H3.63048ZM3.62429 6.90468C3.19696 6.90574 2.78435 7.059 2.46218 7.33636L1.96015 7.76803C1.7827 7.92 1.63728 8.10501 1.53221 8.3125C1.42714 8.51998 1.36447 8.74589 1.34778 8.97731C1.33109 9.20872 1.36071 9.44112 1.43494 9.66123C1.50917 9.88134 1.62656 10.0849 1.78041 10.2601L5.31631 14.2953C5.47014 14.4706 5.6574 14.6142 5.86743 14.718C6.07745 14.8218 6.30611 14.8837 6.54036 14.9002C6.7746 14.9167 7.00984 14.8875 7.23264 14.8141C7.45544 14.7408 7.66144 14.6248 7.83886 14.4728L8.35019 14.0442C8.70877 13.7368 8.92912 13.3013 8.96282 12.8334C8.99652 12.3655 8.84082 11.9036 8.52993 11.5491L4.98473 7.51392C4.81707 7.32139 4.60922 7.16698 4.37546 7.06129C4.1417 6.9556 3.88756 6.90112 3.63048 6.90161L3.62429 6.90468Z" fill="#158427"/>
<path d="M5.57333 10.7751L1.75058 14.5452C1.05047 15.2356 1.04948 16.3561 1.74837 17.0477L2.2169 17.5114C2.91579 18.2031 4.04991 18.204 4.75003 17.5136L8.57278 13.7436C9.2729 13.0531 9.27389 11.9327 8.57499 11.241L8.10647 10.7773C7.40757 10.0856 6.27345 10.0847 5.57333 10.7751Z" fill="#158427"/>
<path d="M6.83805 10.5663C7.03276 10.5651 7.22573 10.6024 7.40562 10.676C7.58551 10.7496 7.74867 10.8581 7.8855 10.9949L8.35034 11.4633C8.6272 11.7376 8.78267 12.1092 8.78267 12.4966C8.78267 12.884 8.6272 13.2556 8.35034 13.5299L4.52933 17.2986C4.25166 17.5722 3.87555 17.7258 3.48344 17.7258C3.09133 17.7258 2.71521 17.5722 2.43754 17.2986L1.9665 16.8302C1.82867 16.6948 1.71929 16.5338 1.64466 16.3565C1.57002 16.1792 1.5316 15.989 1.5316 15.797C1.5316 15.6049 1.57002 15.4148 1.64466 15.2374C1.71929 15.0601 1.82867 14.8991 1.9665 14.7637L5.79371 10.9918C5.93064 10.8562 6.09345 10.7487 6.27272 10.6757C6.45198 10.6026 6.64414 10.5655 6.83805 10.5663ZM6.83805 10.2601C6.60137 10.2581 6.36664 10.3025 6.14747 10.3908C5.9283 10.4791 5.72905 10.6095 5.56129 10.7745L1.74957 14.5463C1.41405 14.8781 1.22559 15.3279 1.22559 15.797C1.22559 16.266 1.41405 16.7158 1.74957 17.0476L2.22061 17.513C2.55687 17.8437 3.01205 18.0294 3.48654 18.0294C3.96102 18.0294 4.4162 17.8437 4.75246 17.513L8.57347 13.7442C8.90899 13.4124 9.09745 12.9625 9.09745 12.4935C9.09745 12.0245 8.90899 11.5747 8.57347 11.2429L8.10553 10.7775C7.93922 10.613 7.74162 10.4826 7.52409 10.3938C7.30657 10.305 7.07342 10.2596 6.83805 10.2601Z" fill="#158427"/>
<path d="M0.140265 4.69005L-0.360923 5.11911C-1.10854 5.75912 -1.18943 6.8767 -0.541594 7.61529L5.29096 14.265C5.93879 15.0036 7.07003 15.0835 7.81764 14.4435L8.31883 14.0144C9.06645 13.3744 9.14734 12.2568 8.4995 11.5182L2.66695 4.86854C2.01911 4.12995 0.88788 4.05004 0.140265 4.69005Z" fill="#E86868"/>
<path d="M2.45789 7.33739L1.9567 7.76644C1.20909 8.40646 1.1282 9.52404 1.77603 10.2626L5.31331 14.2955C5.96115 15.0341 7.09238 15.114 7.83999 14.474L8.34118 14.0449C9.0888 13.4049 9.16969 12.2873 8.52185 11.5487L4.98457 7.51588C4.33674 6.77729 3.20551 6.69738 2.45789 7.33739Z" fill="#D90404"/>
<path d="M5.57655 10.7745L-0.726713 16.9909C-1.42683 17.6813 -1.42782 18.8018 -0.728924 19.4934L-0.260396 19.9571C0.438498 20.6488 1.57262 20.6498 2.27274 19.9593L8.576 13.743C9.27612 13.0525 9.27711 11.9321 8.57821 11.2404L8.10968 10.7767C7.41079 10.0851 6.27667 10.0841 5.57655 10.7745Z" fill="#35A0B8"/>
<path d="M5.57333 10.7751L1.75058 14.5452C1.05047 15.2356 1.04948 16.3561 1.74837 17.0477L2.2169 17.5114C2.91579 18.2031 4.04991 18.204 4.75003 17.5136L8.57278 13.7436C9.2729 13.0531 9.27389 11.9327 8.57499 11.241L8.10647 10.7773C7.40757 10.0856 6.27345 10.0847 5.57333 10.7751Z" fill="#0388A6"/>
<path d="M25.9325 5.90775H29.431V19.7326H25.9325V18.2713C25.2466 18.9151 24.5563 19.381 23.8618 19.669C23.1758 19.9486 22.4298 20.0884 21.6238 20.0884C19.8146 20.0884 18.2497 19.398 16.9292 18.0172C15.6087 16.6279 14.9485 14.9041 14.9485 12.8456C14.9485 10.7109 15.5873 8.96158 16.8649 7.59774C18.1425 6.23389 19.6945 5.55197 21.5209 5.55197C22.3612 5.55197 23.1501 5.70868 23.8875 6.02211C24.6249 6.33554 25.3066 6.80569 25.9325 7.43255V5.90775ZM22.2412 8.75404C21.1522 8.75404 20.2476 9.13524 19.5273 9.89764C18.807 10.6516 18.4469 11.6215 18.4469 12.8075C18.4469 14.0019 18.8113 14.9845 19.5402 15.7554C20.2776 16.5263 21.1822 16.9117 22.254 16.9117C23.3602 16.9117 24.2776 16.5347 25.0065 15.7808C25.7353 15.0184 26.0997 14.0231 26.0997 12.7948C26.0997 11.5919 25.7353 10.6177 25.0065 9.87223C24.2776 9.12677 23.3559 8.75404 22.2412 8.75404Z" fill="#1E1E1E"/>
<path d="M39.5532 5.55197C40.8737 5.55197 42.1128 5.87811 43.2703 6.53038C44.4365 7.18265 45.3454 8.06788 45.997 9.18607C46.6487 10.3043 46.9745 11.5114 46.9745 12.8075C46.9745 14.112 46.6444 15.3318 45.9842 16.467C45.3325 17.6021 44.4408 18.4916 43.3089 19.1354C42.1771 19.7707 40.9295 20.0884 39.5661 20.0884C37.5597 20.0884 35.8447 19.3853 34.4214 17.9791C33.0066 16.5644 32.2992 14.849 32.2992 12.8329C32.2992 10.6727 33.1009 8.87264 34.7043 7.43255C36.1106 6.17883 37.7269 5.55197 39.5532 5.55197ZM39.6047 8.81758C38.5157 8.81758 37.6068 9.19454 36.878 9.94847C36.1577 10.6939 35.7976 11.6512 35.7976 12.8202C35.7976 14.0231 36.1534 14.9972 36.8651 15.7427C37.5854 16.4881 38.4943 16.8609 39.5918 16.8609C40.6894 16.8609 41.6026 16.4839 42.3314 15.73C43.0603 14.9761 43.4247 14.0061 43.4247 12.8202C43.4247 11.6342 43.0645 10.6727 42.3443 9.93576C41.6326 9.1903 40.7194 8.81758 39.6047 8.81758Z" fill="#1E1E1E"/>
<path d="M49.0324 5.90775H52.0421V7.64856C52.368 6.96241 52.801 6.44143 53.3412 6.08565C53.8814 5.72986 54.473 5.55197 55.1161 5.55197C55.5706 5.55197 56.0465 5.67056 56.5438 5.90775L55.4505 8.89382C55.0389 8.69051 54.7002 8.58886 54.4344 8.58886C53.8942 8.58886 53.4355 8.91923 53.0582 9.57997C52.6895 10.2407 52.5052 11.5368 52.5052 13.4682L52.518 14.1417V19.7326H49.0324V5.90775Z" fill="#1E1E1E"/>
<path d="M68.6339 5.90775H72.1324V19.7326H68.6339V18.2713C67.948 18.9151 67.2577 19.381 66.5632 19.669C65.8772 19.9486 65.1312 20.0884 64.3252 20.0884C62.516 20.0884 60.9511 19.398 59.6306 18.0172C58.3101 16.6279 57.6499 14.9041 57.6499 12.8456C57.6499 10.7109 58.2887 8.96158 59.5663 7.59774C60.8439 6.23389 62.3959 5.55197 64.2223 5.55197C65.0626 5.55197 65.8515 5.70868 66.5889 6.02211C67.3263 6.33554 68.008 6.80569 68.6339 7.43255V5.90775ZM64.9426 8.75404C63.8536 8.75404 62.949 9.13524 62.2287 9.89764C61.5085 10.6516 61.1483 11.6215 61.1483 12.8075C61.1483 14.0019 61.5127 14.9845 62.2416 15.7554C62.979 16.5263 63.8836 16.9117 64.9554 16.9117C66.0616 16.9117 66.979 16.5347 67.7079 15.7808C68.4367 15.0184 68.8011 14.0231 68.8011 12.7948C68.8011 11.5919 68.4367 10.6177 67.7079 9.87223C66.979 9.12677 66.0573 8.75404 64.9426 8.75404Z" fill="#1E1E1E"/>
<path d="M76.1067 0.812392H79.6051V5.90775H81.6887V8.89382H79.6051V19.7326H76.1067V8.89382H74.306V5.90775H76.1067V0.812392Z" fill="#1E1E1E"/>
<path d="M84.9557 0.215179C85.573 0.215179 86.1004 0.435428 86.5377 0.875925C86.9835 1.31642 87.2065 1.8501 87.2065 2.47696C87.2065 3.09535 86.9878 3.62479 86.5505 4.06529C86.1132 4.49732 85.5902 4.71333 84.9814 4.71333C84.3554 4.71333 83.8195 4.49308 83.3736 4.05258C82.9363 3.60362 82.7177 3.06147 82.7177 2.42613C82.7177 1.81622 82.9363 1.29524 83.3736 0.863218C83.811 0.431192 84.3383 0.215179 84.9557 0.215179ZM83.1936 5.90775H86.7177V19.7326H83.1936V5.90775Z" fill="#1E1E1E"/>
<path d="M89.8818 5.90775H93.4059V7.49608C94.0061 6.84381 94.6707 6.35672 95.3995 6.03482C96.1369 5.71292 96.9386 5.55197 97.8047 5.55197C98.6793 5.55197 99.4681 5.76375 100.171 6.1873C100.874 6.61086 101.44 7.22925 101.869 8.04247C102.426 7.22925 103.108 6.61086 103.914 6.1873C104.729 5.76375 105.616 5.55197 106.576 5.55197C107.571 5.55197 108.446 5.78069 109.2 6.23813C109.955 6.69557 110.495 7.29278 110.821 8.02976C111.155 8.76675 111.322 9.96541 111.322 11.6257V19.7326H107.785V12.7185C107.785 11.1514 107.588 10.0925 107.194 9.54185C106.799 8.98276 106.208 8.70322 105.419 8.70322C104.819 8.70322 104.278 8.87264 103.798 9.21148C103.327 9.55032 102.975 10.0205 102.744 10.6219C102.512 11.2149 102.396 12.1721 102.396 13.4936V19.7326H98.8593V13.0362C98.8593 11.7994 98.765 10.9057 98.5764 10.3551C98.3963 9.79599 98.1219 9.3809 97.7532 9.10983C97.3845 8.83875 96.9386 8.70322 96.4156 8.70322C95.8325 8.70322 95.3009 8.87687 94.8207 9.22419C94.3491 9.56303 93.9933 10.0416 93.7532 10.66C93.5217 11.2784 93.4059 12.2526 93.4059 13.5826V19.7326H89.8818V5.90775Z" fill="#1E1E1E"/>
<path d="M128.699 13.824H117.419C117.582 14.8066 118.015 15.5902 118.718 16.1747C119.43 16.7508 120.334 17.0388 121.432 17.0388C122.744 17.0388 123.871 16.5856 124.815 15.6792L127.773 17.0515C127.035 18.085 126.152 18.8516 125.123 19.3514C124.094 19.8427 122.872 20.0884 121.458 20.0884C119.263 20.0884 117.475 19.4064 116.094 18.0426C114.714 16.6703 114.023 14.9549 114.023 12.8964C114.023 10.7871 114.709 9.03782 116.081 7.64856C117.462 6.25083 119.19 5.55197 121.265 5.55197C123.468 5.55197 125.26 6.25083 126.641 7.64856C128.021 9.03782 128.712 10.8761 128.712 13.1632L128.699 13.824ZM125.175 11.0921C124.943 10.3212 124.484 9.69433 123.799 9.21148C123.121 8.72863 122.332 8.4872 121.432 8.4872C120.454 8.4872 119.597 8.75828 118.86 9.30043C118.397 9.63927 117.968 10.2365 117.573 11.0921H125.175Z" fill="#1E1E1E"/>
<path d="M131.504 18.4171C131.71 18.4171 131.885 18.4888 132.031 18.6323C132.176 18.7759 132.248 18.9513 132.248 19.1585C132.248 19.3619 132.176 19.5373 132.031 19.6847C131.885 19.8283 131.71 19.9 131.504 19.9C131.298 19.9 131.123 19.8283 130.977 19.6847C130.832 19.5373 130.76 19.3619 130.76 19.1585C130.76 18.9513 130.832 18.7759 130.977 18.6323C131.123 18.4888 131.298 18.4171 131.504 18.4171Z" fill="#1E1E1E"/>
<path d="M140.401 14.5782L139.73 14.9908C139.148 14.2294 138.356 13.8487 137.351 13.8487C136.548 13.8487 135.88 14.1038 135.347 14.6141C134.819 15.1243 134.555 15.7442 134.555 16.4737C134.555 16.9481 134.676 17.3946 134.918 17.8131C135.164 18.2317 135.499 18.5566 135.922 18.7878C136.35 19.019 136.828 19.1346 137.357 19.1346C138.325 19.1346 139.116 18.7539 139.73 17.9925L140.401 18.429C140.087 18.8954 139.663 19.2582 139.13 19.5173C138.602 19.7724 137.998 19.9 137.321 19.9C136.28 19.9 135.416 19.5731 134.73 18.9194C134.044 18.2656 133.701 17.4703 133.701 16.5335C133.701 15.9037 133.86 15.3196 134.179 14.7815C134.502 14.2393 134.944 13.8168 135.505 13.5138C136.066 13.2108 136.693 13.0594 137.387 13.0594C137.823 13.0594 138.243 13.1251 138.646 13.2567C139.054 13.3882 139.399 13.5596 139.681 13.7709C139.964 13.9822 140.204 14.2513 140.401 14.5782Z" fill="#1E1E1E"/>
<path d="M145.153 13.0594C146.166 13.0594 147.005 13.4221 147.671 14.1476C148.276 14.8094 148.579 15.5927 148.579 16.4976C148.579 17.4065 148.258 18.2018 147.616 18.8835C146.979 19.5612 146.157 19.9 145.153 19.9C144.144 19.9 143.319 19.5612 142.677 18.8835C142.04 18.2018 141.721 17.4065 141.721 16.4976C141.721 15.5967 142.023 14.8154 142.629 14.1536C143.295 13.4241 144.136 13.0594 145.153 13.0594ZM145.153 13.8786C144.451 13.8786 143.847 14.1357 143.343 14.6499C142.839 15.1642 142.586 15.7861 142.586 16.5156C142.586 16.986 142.701 17.4245 142.931 17.8311C143.161 18.2377 143.472 18.5526 143.863 18.7759C144.255 18.9951 144.685 19.1047 145.153 19.1047C145.621 19.1047 146.051 18.9951 146.442 18.7759C146.833 18.5526 147.144 18.2377 147.374 17.8311C147.604 17.4245 147.719 16.986 147.719 16.5156C147.719 15.7861 147.465 15.1642 146.956 14.6499C146.452 14.1357 145.851 13.8786 145.153 13.8786Z" fill="#1E1E1E"/>
<path d="M150.152 13.2268H150.994V14.3509C151.288 13.9364 151.591 13.6334 151.901 13.4421C152.329 13.1869 152.779 13.0594 153.251 13.0594C153.57 13.0594 153.873 13.1211 154.159 13.2447C154.446 13.3683 154.68 13.5337 154.861 13.741C155.043 13.9443 155.2 14.2373 155.333 14.62C155.616 14.1098 155.969 13.7231 156.392 13.46C156.816 13.1929 157.272 13.0594 157.76 13.0594C158.216 13.0594 158.618 13.173 158.965 13.4002C159.316 13.6274 159.576 13.9443 159.746 14.3509C159.915 14.7576 160 15.3675 160 16.1807V19.7326H159.134V16.1807C159.134 15.4831 159.084 15.0047 158.983 14.7456C158.882 14.4825 158.709 14.2712 158.462 14.1118C158.22 13.9523 157.93 13.8726 157.591 13.8726C157.179 13.8726 156.802 13.9922 156.459 14.2314C156.12 14.4705 155.872 14.7895 155.715 15.1881C155.557 15.5867 155.479 16.2525 155.479 17.1853V19.7326H154.637V16.402C154.637 15.6166 154.587 15.0844 154.486 14.8054C154.389 14.5224 154.218 14.2971 153.971 14.1297C153.725 13.9583 153.433 13.8726 153.094 13.8726C152.702 13.8726 152.335 13.9902 151.992 14.2254C151.653 14.4566 151.401 14.7695 151.236 15.1642C151.074 15.5588 150.994 16.1628 150.994 16.976V19.7326H150.152V13.2268Z" fill="#1E1E1E"/>
</g>
<defs>
<clipPath id="clip0">
<rect width="160" height="24" fill="white"/>
</clipPath>
</defs>
</svg>
