<svg width="18" height="18" viewBox="0 0 18 18" fill="none" xmlns="http://www.w3.org/2000/svg">
<path fill-rule="evenodd" clip-rule="evenodd" d="M9.75323 9C9.75323 9.45 9.45379 9.75 9.00463 9.75C8.55548 9.75 8.25604 9.45 8.25604 9V1.5C8.25604 1.05 8.55548 0.75 9.00463 0.75C9.45379 0.75 9.75323 1.05 9.75323 1.5V9ZM9.00463 17.25C10.951 17.25 12.8225 16.5 14.3196 15.075C17.2391 12.15 17.2391 7.35001 14.2448 4.42501C13.9453 4.12501 13.4962 4.12501 13.1967 4.42501C12.8973 4.72501 12.8973 5.17501 13.1967 5.47501C15.5174 7.80001 15.5174 11.625 13.1967 13.95C10.8761 16.275 7.0583 16.275 4.73766 13.95C2.41702 11.625 2.41702 7.80001 4.73766 5.47501C5.0371 5.17501 5.0371 4.72501 4.73766 4.42501C4.43822 4.12501 3.98907 4.12501 3.68963 4.42501C0.770123 7.35001 0.770123 12.15 3.68963 15.075C5.18682 16.5 7.0583 17.25 9.00463 17.25Z" fill="black"/>
<mask id="mask0" mask-type="alpha" maskUnits="userSpaceOnUse" x="1" y="0" width="16" height="18">
<path fill-rule="evenodd" clip-rule="evenodd" d="M9.75323 9C9.75323 9.45 9.45379 9.75 9.00463 9.75C8.55548 9.75 8.25604 9.45 8.25604 9V1.5C8.25604 1.05 8.55548 0.75 9.00463 0.75C9.45379 0.75 9.75323 1.05 9.75323 1.5V9ZM9.00463 17.25C10.951 17.25 12.8225 16.5 14.3196 15.075C17.2391 12.15 17.2391 7.35001 14.2448 4.42501C13.9453 4.12501 13.4962 4.12501 13.1967 4.42501C12.8973 4.72501 12.8973 5.17501 13.1967 5.47501C15.5174 7.80001 15.5174 11.625 13.1967 13.95C10.8761 16.275 7.0583 16.275 4.73766 13.95C2.41702 11.625 2.41702 7.80001 4.73766 5.47501C5.0371 5.17501 5.0371 4.72501 4.73766 4.42501C4.43822 4.12501 3.98907 4.12501 3.68963 4.42501C0.770123 7.35001 0.770123 12.15 3.68963 15.075C5.18682 16.5 7.0583 17.25 9.00463 17.25Z" fill="white"/>
</mask>
<g mask="url(#mask0)">
<rect width="18" height="18" fill="#D5F7FF"/>
</g>
</svg>
